<svg xmlns="http://www.w3.org/2000/svg" xmlns:xlink="http://www.w3.org/1999/xlink" width="240" height="130" viewBox="0 0 744.094 1052.362" xmlns:v="https://vecta.io/nano"><style><![CDATA[.B{fill:#fff}.C{fill-rule:evenodd}.D{fill-opacity:.446}]]></style><g class="C"><path d="M-419.315 0h1582.724c99.748 0 180.049 80.302 180.049 180.049v632.481c0 99.747-80.302 180.049-180.049 180.049H-419.315c-99.747 0-180.049-80.302-180.049-180.049V180.049C-599.364 80.302-519.062 0-419.315 0z" class="B"/><path d="M-308.515 357.79h363.03v586.315h-363.03z" fill="#038141"/><path d="M748.698 357.79h363.03v586.315h-363.03z" fill="#e63e11"/><path d="M-382.381 357.79h90.648c75.45 0 136.191 60.741 136.191 136.191v313.932c0 75.45-60.741 136.191-136.191 136.191h-90.648c-75.45 0-136.191-60.741-136.191-136.191V493.982c0-75.45 60.741-136.191 136.191-136.191z" fill="#038141"/><path d="M570.957 357.79h363.03v586.315h-363.03z" fill="#ee8100"/></g><path d="M636.605 779.804V514.002h99.208q32.945 0 57.653 10.482 24.708 10.482 41.181 28.452 16.846 17.97 25.083 42.304 8.611 23.96 8.611 51.289 0 30.324-9.36 55.032-9.36 24.334-26.955 41.929-17.221 17.221-41.929 26.955-24.334 9.359-54.284 9.359h-99.208zM805.82 646.529q0-17.595-4.867-31.821-4.492-14.6-13.477-25.083-8.985-10.482-22.088-16.098-13.103-5.615-29.575-5.615h-37.811v157.984h37.811q16.847 0 29.95-5.99 13.103-5.99 21.713-16.472 8.985-10.857 13.477-25.083 4.867-14.6 4.867-31.821z" class="B D"/><g class="C"><path d="M188.259 357.79H571.58v586.315H188.259z" fill="#fecb02"/><path d="M206.865 357.79h-363.03v586.315h363.03z" fill="#85bb2f"/></g><path d="M293.246 642.411q0-23.96 8.985-47.545 8.985-23.96 26.206-42.678 17.221-18.718 41.929-30.324 24.708-11.605 56.155-11.605 37.437 0 64.766 16.098 27.703 16.098 41.181 41.929l-47.171 32.945q-4.492-10.482-11.605-17.221-6.739-7.113-14.975-11.231-8.236-4.492-16.847-5.99-8.61-1.872-16.847-1.872-17.595 0-30.698 7.113-13.103 7.113-21.713 18.344-8.61 11.231-12.729 25.457-4.118 14.226-4.118 28.826 0 15.723 4.867 30.324 4.867 14.6 13.852 25.831 9.359 11.231 22.088 17.97 13.103 6.364 29.201 6.364 8.236 0 16.847-1.872 8.985-2.246 16.847-6.364 8.236-4.492 14.975-11.231 6.739-7.113 10.857-17.221l50.165 29.575q-5.99 14.6-17.97 26.206-11.605 11.605-26.955 19.467-15.349 7.862-32.57 11.98-17.221 4.118-33.693 4.118-28.826 0-53.16-11.605-23.96-11.98-41.555-31.447-17.221-19.467-26.955-44.176-9.359-24.708-9.359-50.165zm-138.694 78.491q0 17.221-7.113 29.95-7.113 12.729-19.467 21.339-12.354 8.236-28.826 12.729-16.472 4.118-34.816 4.118H-65.203V523.235H82.673q13.852 0 25.083 5.99 11.231 5.99 19.093 15.723 7.862 9.359 11.98 21.713 4.492 11.98 4.492 24.708 0 19.093-9.734 35.939-9.359 16.847-28.452 25.457 22.837 6.739 35.94 23.96 13.477 17.221 13.477 44.176zm-62.52-12.354q0-12.354-7.113-20.965-7.113-8.61-17.97-8.61H-3.806V737h68.135q11.98 0 19.842-7.862 7.862-7.862 7.862-20.59zM-3.806 575.647v55.032h60.273q10.108 0 17.97-6.739 7.862-6.739 7.862-20.965 0-13.103-7.113-20.216-6.739-7.113-16.472-7.113h-62.52z" class="B D"/><use xlink:href="#B" fill="#0039ff" fill-opacity=".63" stroke="#fff" stroke-width="61.032" stroke-linejoin="round" class="C"/><path d="M-384.712 514.002h55.407l96.962 265.802h-62.894l-20.59-59.525h-82.736l-20.216 59.525h-62.894l96.962-265.802zm58.776 163.974l-31.073-93.967-31.821 93.967h62.894z" class="B D"/><path d="M1069.556 357.79h90.647c75.45 0 136.192 60.741 136.192 136.191v313.932c0 75.45-60.742 136.191-136.192 136.191h-90.647c-75.45 0-136.192-60.741-136.192-136.191V493.982c0-75.45 60.742-136.191 136.192-136.191z" fill="#e63e11" class="C"/><path d="M1188.707 725.895v53.909h-186.811V514.002h183.441v53.909h-122.044v51.663h104.824v49.791h-104.824v56.53h125.414z" class="B D"/><use xlink:href="#B" fill="#85bb2f" class="C"/><path d="M173.439 742.361q0 22.704-8.602 39.486-8.602 16.781-23.543 28.134-14.941 10.859-34.862 16.782-19.921 5.429-42.106 5.429H-92.326V481.753H86.511q16.752 0 30.334 7.897 13.583 7.897 23.09 20.73 9.508 12.339 14.488 28.627 5.433 15.794 5.433 32.576 0 25.172-11.772 47.383-11.319 22.211-34.409 33.563 27.618 8.884 43.464 31.589 16.299 22.704 16.299 58.242zm-75.61-16.288q0-16.288-8.602-27.64-8.602-11.352-21.732-11.352h-85.57v76.504h82.401q14.488 0 23.996-10.365 9.508-10.365 9.508-27.147zM-18.075 550.854v72.555h72.893q12.224 0 21.732-8.884 9.508-8.884 9.508-27.64 0-17.275-8.602-26.653-8.15-9.378-19.921-9.378h-75.609z" class="B"/><path d="M-443.389 163.147v76.826h-31.033V105.622h24.221l62.634 78.908v-78.908h31.033v134.351h-24.978l-61.877-76.826zm170.449 50.335q7.948 0 13.435-3.217 5.488-3.406 8.894-8.894 3.406-5.488 4.731-12.489 1.514-7.191 1.514-14.57v-68.689h31.033v68.689q0 14.003-3.595 26.113-3.406 12.111-10.786 21.193-7.191 9.083-18.544 14.381-11.164 5.109-26.681 5.109-16.084 0-27.438-5.488-11.354-5.488-18.544-14.57-7.001-9.272-10.408-21.383-3.217-12.111-3.217-25.356v-68.689h31.033v68.689q0 7.758 1.514 14.76 1.514 7.001 4.92 12.489 3.406 5.488 8.704 8.704 5.488 3.217 13.435 3.217zm185.838-80.611h-40.873v107.102h-31.033V132.871h-41.062v-27.249h112.968v27.249zm15.156 107.102V105.622h60.553q9.461 0 17.409 3.974 8.137 3.974 14.003 10.407 5.866 6.434 9.083 14.57 3.406 8.137 3.406 16.463 0 6.244-1.514 12.111-1.514 5.677-4.352 10.786-2.838 5.109-7.001 9.272-3.974 3.974-9.083 6.812l29.519 49.956H5.069l-25.735-43.333h-20.247v43.333h-31.033zm31.033-70.392h28.384q5.487 0 9.461-5.109 3.974-5.298 3.974-13.435 0-8.326-4.541-13.246-4.541-4.92-9.84-4.92h-27.438v36.71zm95.734 70.392V105.622h31.033v134.351H54.821zm54.267-38.413v-27.249h58.282v27.249h-58.282zm161.981-56.578q-.568-.757-3.974-2.838-3.406-2.081-8.515-4.352-5.109-2.271-11.164-3.974-6.055-1.703-12.111-1.703-16.652 0-16.652 11.164 0 3.406 1.703 5.677 1.892 2.271 5.298 4.163 3.595 1.703 8.894 3.217 5.298 1.514 12.3 3.406 9.651 2.649 17.409 5.866 7.758 3.028 13.057 7.758 5.488 4.541 8.326 11.164 3.028 6.623 3.028 15.895 0 11.354-4.352 19.301-4.163 7.758-11.164 12.678-7.001 4.731-16.084 7.001-9.083 2.081-18.733 2.081-7.38 0-15.138-1.135-7.758-1.135-15.138-3.217-7.38-2.271-14.381-5.298-6.812-3.028-12.678-7.001l13.624-27.059q.757.946 4.92 3.595 4.163 2.649 10.218 5.298 6.244 2.649 13.814 4.731 7.569 2.081 15.327 2.081 16.463 0 16.463-10.029 0-3.785-2.46-6.245-2.46-2.46-6.812-4.352-4.352-2.081-10.407-3.785-5.866-1.703-12.867-3.784-9.272-2.838-16.084-6.055-6.812-3.406-11.354-7.758-4.352-4.352-6.623-10.029-2.081-5.677-2.081-13.246 0-10.597 3.974-18.733 3.974-8.137 10.786-13.624 6.812-5.677 15.706-8.515 9.083-2.838 19.112-2.838 7.001 0 13.814 1.325 6.812 1.325 13.057 3.406 6.244 2.081 11.543 4.731 5.488 2.649 10.029 5.298l-13.624 25.735zm28.05 26.681q0-12.111 4.541-24.032 4.541-12.111 13.246-21.572 8.704-9.461 21.193-15.327 12.489-5.866 28.384-5.866 18.923 0 32.736 8.137 14.003 8.137 20.815 21.193l-23.843 16.652q-2.271-5.298-5.866-8.704-3.406-3.595-7.569-5.677-4.163-2.271-8.515-3.028-4.352-.946-8.515-.946-8.894 0-15.517 3.595-6.623 3.595-10.975 9.272-4.352 5.677-6.434 12.867-2.081 7.191-2.081 14.57 0 7.948 2.46 15.327 2.46 7.38 7.001 13.057 4.731 5.677 11.164 9.083 6.623 3.217 14.76 3.217 4.163 0 8.515-.946 4.541-1.135 8.515-3.217 4.163-2.271 7.569-5.677 3.406-3.595 5.488-8.704l25.356 14.949q-3.028 7.38-9.083 13.246-5.866 5.866-13.624 9.84-7.758 3.974-16.463 6.055-8.704 2.082-17.03 2.082-14.57 0-26.87-5.866-12.111-6.055-21.004-15.895-8.704-9.84-13.624-22.329-4.731-12.489-4.731-25.356zm195.223 69.446q-14.949 0-27.249-5.866-12.3-5.866-21.004-15.327-8.704-9.651-13.624-21.95-4.731-12.3-4.731-25.356 0-13.246 4.92-25.546 5.109-12.3 14.003-21.572 9.083-9.461 21.383-14.949 12.3-5.677 26.87-5.677 14.949 0 27.249 5.866 12.3 5.866 21.004 15.517 8.704 9.651 13.435 21.95 4.731 12.3 4.731 24.978 0 13.246-5.109 25.546-4.92 12.3-13.814 21.761-8.894 9.272-21.193 14.949-12.3 5.677-26.87 5.677zm-35.007-68.122q0 7.758 2.271 15.138 2.271 7.191 6.623 12.867 4.541 5.677 11.164 9.083 6.623 3.406 15.138 3.406 8.894 0 15.517-3.595 6.623-3.595 10.975-9.272 4.352-5.866 6.434-13.057 2.271-7.38 2.271-14.949 0-7.758-2.271-14.949-2.271-7.38-6.812-12.867-4.541-5.677-11.164-8.894-6.434-3.406-14.949-3.406-8.894 0-15.517 3.595-6.434 3.406-10.975 9.083-4.352 5.677-6.623 13.057-2.081 7.191-2.081 14.76zm119.925 66.986V105.622h60.553q9.461 0 17.409 3.974 8.137 3.974 14.003 10.407 5.866 6.434 9.083 14.57 3.406 8.137 3.406 16.463 0 6.244-1.514 12.111-1.514 5.677-4.352 10.786-2.838 5.109-7.001 9.272-3.974 3.974-9.083 6.812l29.519 49.956h-35.007l-25.735-43.333h-20.247v43.333H579.26zm31.033-70.392h28.384q5.488 0 9.461-5.109 3.974-5.298 3.974-13.435 0-8.326-4.541-13.246-4.541-4.92-9.84-4.92h-27.438v36.71zm190.158 43.144v27.249h-94.424V105.622h92.721v27.249H737.06v26.113h52.983v25.167H737.06v28.573h63.391z" fill="#7d7d7d"/><defs ><path id="B" d="M7.726 281.616h39.326c108.699 0 196.208 87.509 196.208 196.208v343.941c0 108.699-87.509 196.208-196.208 196.208H7.726c-108.699 0-196.208-87.509-196.208-196.208V477.823c0-108.699 87.509-196.208 196.208-196.208z"/></defs></svg>